<?xml version="1.0" standalone="no"?><svg xmlns="http://www.w3.org/2000/svg" viewBox="0 0 1440 320"><path fill="#a2d9ff" fill-opacity="1" d="M0,32L26.7,64C53.3,96,107,160,160,160C213.3,160,267,96,320,90.7C373.3,85,427,139,480,160C533.3,181,587,171,640,181.3C693.3,192,747,224,800,224C853.3,224,907,192,960,197.3C1013.3,203,1067,245,1120,245.3C1173.3,245,1227,203,1280,181.3C1333.3,160,1387,160,1413,160L1440,160L1440,320L1413.3,320C1386.7,320,1333,320,1280,320C1226.7,320,1173,320,1120,320C1066.7,320,1013,320,960,320C906.7,320,853,320,800,320C746.7,320,693,320,640,320C586.7,320,533,320,480,320C426.7,320,373,320,320,320C266.7,320,213,320,160,320C106.7,320,53,320,27,320L0,320Z"></path></svg>