<svg width="20" height="20" viewBox="0 0 20 20" fill="none" xmlns="http://www.w3.org/2000/svg">
<path d="M16.155 13.2083C15.8735 13.2083 15.595 13.1701 15.3196 13.0938C15.0441 13.0174 14.7779 12.9236 14.5208 12.8125C14.3208 12.7292 14.118 12.6562 13.9125 12.5938C13.7069 12.5312 13.5 12.5 13.2916 12.5C13.0104 12.5 12.7352 12.5417 12.466 12.625C12.197 12.7083 11.9394 12.8264 11.6931 12.9792L11.2708 12.0625C11.5764 11.8819 11.8993 11.7431 12.2396 11.6458C12.5798 11.5486 12.9275 11.5 13.2825 11.5C13.564 11.5 13.8425 11.5382 14.1179 11.6146C14.3933 11.691 14.6596 11.7847 14.9166 11.8958C15.1133 11.9792 15.3127 12.0521 15.5148 12.1146C15.717 12.1771 15.9273 12.2083 16.1458 12.2083C16.4319 12.2083 16.7118 12.1667 16.9854 12.0833C17.259 12 17.5189 11.8819 17.7652 11.7292L18.1875 12.6458C17.868 12.8264 17.5382 12.9653 17.1979 13.0625C16.8576 13.1597 16.51 13.2083 16.155 13.2083ZM16.155 15.4583C15.8735 15.4583 15.595 15.4201 15.3196 15.3438C15.0441 15.2674 14.7779 15.1736 14.5208 15.0625C14.3208 14.9792 14.118 14.9062 13.9125 14.8438C13.7069 14.7812 13.5 14.75 13.2916 14.75C13.0104 14.75 12.7352 14.7917 12.466 14.875C12.197 14.9583 11.9394 15.0764 11.6931 15.2292L11.2708 14.3125C11.5764 14.1319 11.8993 13.9931 12.2396 13.8958C12.5798 13.7986 12.9275 13.75 13.2825 13.75C13.564 13.75 13.8425 13.7882 14.1179 13.8646C14.3933 13.941 14.6596 14.0347 14.9166 14.1458C15.1133 14.2292 15.3127 14.3021 15.5148 14.3646C15.717 14.4271 15.9273 14.4583 16.1458 14.4583C16.4319 14.4583 16.7118 14.4167 16.9854 14.3333C17.259 14.25 17.5189 14.1319 17.7652 13.9792L18.1875 14.8958C17.868 15.0764 17.5382 15.2153 17.1979 15.3125C16.8576 15.4097 16.51 15.4583 16.155 15.4583ZM16.155 17.7083C15.8735 17.7083 15.595 17.6701 15.3196 17.5938C15.0441 17.5174 14.7779 17.4236 14.5208 17.3125C14.3208 17.2292 14.118 17.1562 13.9125 17.0938C13.7069 17.0312 13.5 17 13.2916 17C13.0104 17 12.7352 17.0417 12.466 17.125C12.197 17.2083 11.9394 17.3264 11.6931 17.4792L11.2708 16.5625C11.5764 16.3819 11.8993 16.2431 12.2396 16.1458C12.5798 16.0486 12.9275 16 13.2825 16C13.564 16 13.8425 16.0382 14.1179 16.1146C14.3933 16.191 14.6596 16.2847 14.9166 16.3958C15.1133 16.4792 15.3127 16.5521 15.5148 16.6146C15.717 16.6771 15.9273 16.7083 16.1458 16.7083C16.4319 16.7083 16.7118 16.6667 16.9854 16.5833C17.259 16.5 17.5189 16.3819 17.7652 16.2292L18.1875 17.1458C17.868 17.3264 17.5382 17.4653 17.1979 17.5625C16.8576 17.6597 16.51 17.7083 16.155 17.7083Z" fill="#555555"/>
<path fill-rule="evenodd" clip-rule="evenodd" d="M9.60938 2C10.6587 2.00003 11.6417 2.19801 12.5586 2.59375C13.4756 2.98958 14.2809 3.53385 14.9736 4.22656C15.6663 4.91925 16.2106 5.72563 16.6064 6.64551C17.0023 7.56553 17.2002 8.54883 17.2002 9.59473C17.2002 9.73086 17.1962 9.86594 17.1895 10H11.4795C11.0727 10 10.7241 10.1467 10.4346 10.4404C10.1448 10.7342 10 11.0875 10 11.5V17.1895C9.86951 17.1958 9.73798 17.2002 9.60547 17.2002C8.55957 17.2002 7.57486 17.0022 6.65137 16.6064C5.7278 16.2106 4.91925 15.6663 4.22656 14.9736C3.53387 14.2809 2.98958 13.4729 2.59375 12.5498C2.19792 11.6267 2 10.6403 2 9.59082C2.00001 8.54151 2.19804 7.55848 2.59375 6.6416C2.98958 5.72459 3.53385 4.91927 4.22656 4.22656C4.91927 3.53385 5.72731 2.98958 6.65039 2.59375C7.57344 2.19795 8.55993 2 9.60938 2ZM9.59961 3.4248C7.8845 3.4249 6.42619 4.02443 5.22559 5.22266C4.0251 6.42092 3.4248 7.88388 3.4248 9.61035C3.42486 10.4348 3.5838 11.2195 3.90039 11.9648C4.21706 12.7103 4.66554 13.3735 5.24609 13.9541L9.59961 9.59961V3.4248Z" fill="#555555"/>
</svg>
