<svg width="20" height="20" viewBox="0 0 20 20" fill="none" xmlns="http://www.w3.org/2000/svg">
<path d="M4.5 17H5.375V14.625H3V15.5C3 15.9125 3.14687 16.2656 3.44062 16.5594C3.73437 16.8531 4.0875 17 4.5 17ZM6.875 17H9.25V14.625H6.875V17ZM10.75 17H13.125V14.625H10.75V17ZM14.625 17H15.5C15.9125 17 16.2656 16.8531 16.5594 16.5594C16.8531 16.2656 17 15.9125 17 15.5V14.625H14.625V17ZM3 5.375H5.375V3H4.5C4.0875 3 3.73437 3.14688 3.44062 3.44063C3.14687 3.73438 3 4.0875 3 4.5V5.375ZM3 9.25H5.375V6.875H3V9.25ZM3 13.125H5.375V10.75H3V13.125ZM6.875 5.375H9.25V3H6.875V5.375ZM6.875 9.25H9.25V6.875H6.875V9.25ZM6.875 13.125H9.25V10.75H6.875V13.125ZM10.75 5.375H13.125V3H10.75V5.375ZM10.75 9.25H13.125V6.875H10.75V9.25ZM10.75 13.125H13.125V10.75H10.75V13.125ZM14.625 5.375H17V4.5C17 4.0875 16.8531 3.73438 16.5594 3.44063C16.2656 3.14688 15.9125 3 15.5 3H14.625V5.375ZM14.625 9.25H17V6.875H14.625V9.25ZM14.625 13.125H17V10.75H14.625V13.125Z" fill="#555555"/>
</svg>
