<svg width="20" height="20" viewBox="0 0 20 20" fill="none" xmlns="http://www.w3.org/2000/svg">
<path fill-rule="evenodd" clip-rule="evenodd" d="M10.5 3C10.9125 3 11.2658 3.14668 11.5596 3.44043C11.8533 3.73418 12 4.0875 12 4.5V14.5C12 14.9125 11.8533 15.2658 11.5596 15.5596C11.2658 15.8533 10.9125 16 10.5 16H9.5C9.0875 16 8.73418 15.8533 8.44043 15.5596C8.14668 15.2658 8 14.9125 8 14.5V4.5C8 4.0875 8.14668 3.73418 8.44043 3.44043C8.73418 3.14668 9.0875 3 9.5 3H10.5ZM9 15H10V14H9V15ZM9 13H10V12H9V13ZM9 10V11H11V10H9ZM9 9H10V8H9V9ZM9 7H10V6H9V7ZM9 5H11V4H9V5Z" fill="#555555"/>
<path fill-rule="evenodd" clip-rule="evenodd" d="M10.5 3C10.9125 3 11.2658 3.14668 11.5596 3.44043C11.8533 3.73418 12 4.0875 12 4.5V14.5C12 14.9125 11.8533 15.2658 11.5596 15.5596C11.2658 15.8533 10.9125 16 10.5 16H9.5C9.0875 16 8.73418 15.8533 8.44043 15.5596C8.14668 15.2658 8 14.9125 8 14.5V4.5C8 4.0875 8.14668 3.73418 8.44043 3.44043C8.73418 3.14668 9.0875 3 9.5 3H10.5ZM9 15H10V14H9V15ZM9 13H10V12H9V13ZM9 10V11H11V10H9ZM9 9H10V8H9V9ZM9 7H10V6H9V7ZM9 5H11V4H9V5Z" fill="#555555"/>
<path d="M15.3545 14.5C16.1459 14.5 16.6615 14.6667 16.9014 15C17.1411 15.3333 17.5074 15.5 18 15.5V17C17.2085 17 16.6913 16.8332 16.4482 16.5C16.2052 16.1667 15.8406 16 15.3555 16C14.8704 16 14.5032 16.1667 14.2539 16.5C14.0046 16.8333 13.4825 17 12.6875 17C11.8958 17 11.3712 16.8333 11.1143 16.5C10.8573 16.1668 10.486 16 10 16C9.51389 16 9.14607 16.1667 8.89746 16.5C8.64865 16.8332 8.1277 17 7.33496 17C6.54216 16.9999 6.02046 16.8333 5.77051 16.5C5.52057 16.1668 5.15287 16.0001 4.66699 16C4.18095 16 3.81334 16.1668 3.56445 16.5C3.31556 16.8333 2.79389 17 2 17V15.5C2.48611 15.5 2.85393 15.3333 3.10254 15C3.35135 14.6668 3.8723 14.5 4.66504 14.5C5.45767 14.5001 5.97864 14.6669 6.22852 15C6.47846 15.3333 6.84692 15.4999 7.33301 15.5C7.81905 15.5 8.18666 15.3332 8.43555 15C8.68444 14.6667 9.20611 14.5 10 14.5C10.7917 14.5 11.3125 14.6667 11.5625 15C11.8125 15.3333 12.1809 15.5 12.667 15.5C13.1529 15.4999 13.5244 15.3333 13.7812 15C14.0382 14.6667 14.5628 14.5 15.3545 14.5ZM4.66699 11.25C5.45848 11.25 5.97953 11.4167 6.22949 11.75C6.41873 12.0022 6.67552 12.1584 7 12.2197V13.7373C6.39367 13.6953 5.98354 13.534 5.77051 13.25C5.52057 12.9168 5.15287 12.7501 4.66699 12.75C4.18088 12.75 3.8125 12.9167 3.5625 13.25C3.3125 13.5833 2.79167 13.75 2 13.75V12.25C2.48611 12.25 2.85365 12.0833 3.10254 11.75C3.35143 11.4167 3.87312 11.25 4.66699 11.25ZM15.333 11.25C16.1246 11.25 16.6455 11.4168 16.8955 11.75C17.1455 12.0833 17.5139 12.25 18 12.25V13.75C17.2083 13.75 16.6875 13.5833 16.4375 13.25C16.1875 12.9167 15.82 12.75 15.335 12.75C14.8499 12.75 14.4827 12.9168 14.2334 13.25C14.0208 13.5342 13.6094 13.6954 13 13.7373V12.2197C13.3243 12.1584 13.5811 12.0023 13.7695 11.75C14.0184 11.4168 14.5394 11.25 15.333 11.25Z" fill="#555555"/>
</svg>
